<?xml version="1.0" encoding="utf-8"?>
<!-- Generator: Adobe Illustrator 19.1.0, SVG Export Plug-In . SVG Version: 6.00 Build 0)  -->
<svg version="1.1" id="Livello_1" xmlns="http://www.w3.org/2000/svg" xmlns:xlink="http://www.w3.org/1999/xlink" x="0px" y="0px"
	 viewBox="0 0 39.1 39.1" enable-background="new 0 0 39.1 39.1" xml:space="preserve">
<g>
	<g>
		<g>
			<path fill="#CE6765" d="M19.5,38.3c-10.4,0-18.8-8.4-18.8-18.8S9.2,0.8,19.5,0.8s18.8,8.4,18.8,18.8S29.9,38.3,19.5,38.3z"/>
			<path fill="#C5362D" d="M19.5,1.5c10,0,18,8.1,18,18s-8.1,18-18,18s-18-8.1-18-18S9.6,1.5,19.5,1.5 M19.5,0C8.8,0,0,8.8,0,19.5
				c0,10.8,8.8,19.5,19.5,19.5c10.8,0,19.5-8.8,19.5-19.5C39.1,8.8,30.3,0,19.5,0L19.5,0z"/>
		</g>
		
			<line fill="none" stroke="#FFFFFF" stroke-width="2" stroke-linecap="round" stroke-miterlimit="10" x1="12.4" y1="12.4" x2="26.6" y2="26.6"/>
		
			<line fill="none" stroke="#FFFFFF" stroke-width="2" stroke-linecap="round" stroke-miterlimit="10" x1="26.3" y1="12.7" x2="12.7" y2="26.3"/>
	</g>
</g>
</svg>
