<?xml version="1.0" encoding="utf-8"?>
<!-- Generator: Adobe Illustrator 19.1.0, SVG Export Plug-In . SVG Version: 6.00 Build 0)  -->
<svg version="1.1" id="Livello_1" xmlns="http://www.w3.org/2000/svg" xmlns:xlink="http://www.w3.org/1999/xlink" x="0px" y="0px"
	 viewBox="0 0 32.8 32.8" enable-background="new 0 0 32.8 32.8" xml:space="preserve">
<g>
	<g>
		<path fill="#FFFFFF" d="M25.3,8.4c2.4,2.4,3.3,6.9,0.7,9.5c-2.7,2.7-6.6,4.3-9.9,1c-2.6-2.6-0.4-5.9-2-7.5
			c-2.5-2.5-7.8,1.7-9.2,3.1c-3.1,3.1-3.8,6.1-3.2,9.1c2.7,5.5,8.3,9.2,14.7,9.2c9.1,0,16.4-7.3,16.4-16.4C32.8,7.3,25.5,0,16.4,0
			C7.4,0,0,7.3,0,16.4c0.9-1.3,2-2.6,3.3-3.8C8.5,7.3,18.7,1.8,25.3,8.4"/>
	</g>
</g>
</svg>