<?xml version="1.0" encoding="utf-8"?>
<!-- Generator: Adobe Illustrator 19.1.0, SVG Export Plug-In . SVG Version: 6.00 Build 0)  -->
<svg version="1.1" id="Livello_1" xmlns="http://www.w3.org/2000/svg" xmlns:xlink="http://www.w3.org/1999/xlink" x="0px" y="0px"
	 viewBox="0 0 239.8 32.8" enable-background="new 0 0 239.8 32.8" xml:space="preserve">
<g>
	<g>
		<path fill="#FFFFFF" d="M25.3,8.4c2.4,2.4,3.3,6.9,0.7,9.5c-2.7,2.7-6.6,4.3-9.9,1c-2.6-2.6-0.4-5.9-2-7.5
			c-2.5-2.5-7.8,1.7-9.2,3.1c-3.1,3.1-3.8,6.1-3.2,9.1c2.7,5.5,8.3,9.2,14.7,9.2c9.1,0,16.4-7.3,16.4-16.4C32.8,7.3,25.5,0,16.4,0
			C7.4,0,0,7.3,0,16.4c0.9-1.3,2-2.6,3.3-3.8C8.5,7.3,18.7,1.8,25.3,8.4"/>
		<path fill="#FFFFFF" d="M52.4,5.1l-0.2,4.1c-0.4-1-1-1.8-1.8-2.3c-0.8-0.5-1.7-0.8-2.8-0.8c-2.1,0-3.8,0.7-5,2.1
			c-1.2,1.4-1.8,3.3-1.8,5.8c0,2.6,0.7,4.6,2,6.1c1.3,1.5,3.1,2.3,5.4,2.3c1.1,0,2-0.2,3-0.6c0.9-0.4,1.7-1,2.4-1.7
			c-0.3,1.4-1.1,2.5-2.4,3.3c-1.2,0.8-2.7,1.2-4.4,1.2c-2.6,0-4.7-0.9-6.4-2.7c-1.7-1.8-2.5-4.2-2.5-7c0-3.2,0.9-5.6,2.7-7.4
			c1.8-1.8,4.3-2.7,7.4-2.7c0.5,0,1.2,0.1,2.2,0.2C51.1,5.1,51.9,5.1,52.4,5.1"/>
		<path fill="#FFFFFF" d="M58.1,14.8h0.3c0,0,0.3,0,0.7,0c0.4,0,0.9,0,1.3,0h0.4c1.3,0,2.1-0.1,2.4-0.2c0.3-0.1,0.5-0.4,0.5-0.8
			c0-0.6-0.2-1.1-0.7-1.6c-0.5-0.4-1.1-0.6-1.7-0.6c-0.8,0-1.5,0.3-2.1,0.9C58.5,13.1,58.2,13.9,58.1,14.8 M65.9,21v0.4
			c0,0.8-0.5,1.5-1.5,2.2c-1,0.7-2.1,1-3.3,1c-1.8,0-3.2-0.6-4.3-1.9c-1.1-1.3-1.6-3-1.6-5.1c0-2.2,0.6-3.9,1.7-5.2
			c1.1-1.3,2.6-1.9,4.5-1.9c1.4,0,2.5,0.4,3.4,1.1c0.9,0.7,1.3,1.7,1.3,2.8c0,0.5-0.3,0.8-0.8,0.9c-0.5,0.2-2,0.2-4.5,0.2
			c-0.7,0-1.3,0-1.7,0c-0.4,0-0.8,0-1.2,0c-0.1,0.3-0.1,0.5-0.2,0.8c0,0.3-0.1,0.6-0.1,0.9c0,1.7,0.4,3,1.2,4c0.8,1,1.9,1.4,3.2,1.4
			c0.7,0,1.4-0.1,2-0.4C64.7,22.1,65.3,21.6,65.9,21z"/>
		<path fill="#FFFFFF" d="M68.4,24.3c0.2-0.2,0.4-0.5,0.5-1c0.1-0.5,0.1-1.4,0.1-2.8v-3.8c0-2.2,0-3.6-0.1-4.2
			c-0.1-0.7-0.3-1.1-0.5-1.2c0.4-0.1,0.8-0.1,1.3-0.2c0.5-0.1,0.8-0.1,0.9-0.1c0.3,0,0.5,0.4,0.5,1.2c0,0.3,0,0.4,0,0.6
			c0.5-0.7,1-1.3,1.5-1.6c0.5-0.3,1.1-0.5,1.7-0.5c0.5,0,0.9,0.1,1.2,0.3c0.3,0.2,0.4,0.5,0.4,0.8c0,0.3-0.1,0.5-0.3,0.7
			c-0.2,0.2-0.5,0.2-0.9,0.2c-0.2,0-0.4,0-0.8,0c-0.4,0-0.6,0-0.8,0c-0.8,0-1.4,0.3-1.6,0.8c-0.3,0.5-0.4,1.8-0.4,3.8
			c0,0.3,0,0.9,0,1.7c0,0.8,0,1.5,0,2.1c0,1,0,1.8,0.1,2.3c0.1,0.5,0.3,0.8,0.5,1H68.4"/>
		<path fill="#FFFFFF" d="M82.8,24.4c-1.2-4.2-2.3-7.5-3.2-9.8c-0.9-2.3-1.5-3.5-1.9-3.6l2.2-0.2h0.3c0.4,0,1.2,1.9,2.3,5.6
			c0.7,2.4,1.3,4.4,1.8,5.9c0.9-2.5,1.7-4.6,2.2-6.5c0.5-1.8,0.8-3.1,0.8-3.7c0-0.2,0-0.4-0.1-0.6c0-0.2-0.1-0.4-0.2-0.5h3.1
			c-0.4,0.4-1.2,1.9-2.2,4.3c-1,2.5-2.1,5.5-3.3,9.1H82.8"/>
		<path fill="#FFFFFF" d="M93.3,14.8h0.3c0,0,0.3,0,0.7,0c0.4,0,0.9,0,1.3,0H96c1.3,0,2.1-0.1,2.4-0.2c0.3-0.1,0.5-0.4,0.5-0.8
			c0-0.6-0.2-1.1-0.7-1.6c-0.5-0.4-1.1-0.6-1.7-0.6c-0.8,0-1.5,0.3-2.1,0.9C93.8,13.1,93.4,13.9,93.3,14.8 M101.2,21v0.4
			c0,0.8-0.5,1.5-1.5,2.2c-1,0.7-2.1,1-3.3,1c-1.8,0-3.2-0.6-4.3-1.9c-1.1-1.3-1.6-3-1.6-5.1c0-2.2,0.6-3.9,1.7-5.2
			c1.1-1.3,2.6-1.9,4.5-1.9c1.4,0,2.5,0.4,3.4,1.1c0.9,0.7,1.3,1.7,1.3,2.8c0,0.5-0.3,0.8-0.8,0.9c-0.5,0.2-2,0.2-4.5,0.2
			c-0.7,0-1.3,0-1.7,0c-0.4,0-0.8,0-1.2,0c-0.1,0.3-0.1,0.5-0.2,0.8c0,0.3,0,0.6,0,0.9c0,1.7,0.4,3,1.2,4c0.8,1,1.9,1.4,3.2,1.4
			c0.7,0,1.4-0.1,2-0.4C100,22.1,100.6,21.6,101.2,21z"/>
		<path fill="#FFFFFF" d="M109.8,23.1c1,0,1.7-0.3,2.1-0.8c0.4-0.6,0.6-1.7,0.6-3.3c0-2.7,0-4.4,0-5.1c0-0.7-0.1-1.2-0.2-1.4
			c-0.1-0.3-0.3-0.4-0.6-0.6c-0.3-0.1-0.7-0.2-1.2-0.2c-1.6,0-2.8,0.5-3.7,1.6c-0.9,1.1-1.4,2.5-1.4,4.4c0,1.6,0.4,2.9,1.2,3.9
			C107.6,22.6,108.6,23.1,109.8,23.1 M115.1,3.4c-0.1,1-0.2,2.7-0.3,5.2c-0.1,2.5-0.1,5.3-0.1,8.5c0,3,0.1,4.9,0.2,5.7
			c0.1,0.8,0.3,1.3,0.6,1.6l-2.8,0.2c0-0.2-0.1-0.5-0.1-0.7c0-0.2,0-0.4,0-0.6v-0.4c-0.4,0.6-1,1-1.7,1.4c-0.7,0.3-1.5,0.5-2.3,0.5
			c-1.6,0-2.9-0.6-3.9-1.8c-1-1.2-1.5-2.8-1.5-4.8c0-2.3,0.7-4.2,2.1-5.5c1.4-1.3,3.4-2,5.8-2c0.3,0,0.6,0,0.8,0c0.2,0,0.4,0,0.6,0
			V7.5c0-1.1,0-2-0.1-2.5c-0.1-0.5-0.2-0.9-0.4-1.2L115.1,3.4z"/>
	</g>
	<g>
		<path fill="#FFFFFF" d="M124.2,12.2h3.2c3.7,0,4.2,2.7,4.2,5.9c0,3-0.7,5.9-4,5.9h-3.3V12.2z M125.7,22.9h1.5
			c2.5,0,2.8-2.6,2.8-4.7c0-2.3-0.1-4.8-2.8-4.8h-1.5V22.9z"/>
		<path fill="#FFFFFF" d="M132.5,15.2h1.5l1.8,7.2h0l1.6-7.2h1.5l-2.6,9.5c-0.3,1.2-0.7,2.3-2.4,2.3c-0.5,0-0.8,0-1,0v-1.1
			c0.2,0,0.5,0,0.8,0c0.6,0,0.9-0.4,1.1-0.9l0.3-0.8L132.5,15.2z"/>
		<path fill="#FFFFFF" d="M140,15.2h1.3v1h0c0.4-0.8,1.3-1.3,2.2-1.3c2.3,0,2.3,1.8,2.3,2.8v6.3h-1.4v-6.2c0-0.7,0-1.8-1.3-1.8
			c-0.7,0-1.8,0.5-1.8,1.8v6.2H140V15.2z"/>
		<path fill="#FFFFFF" d="M147.5,17.9c0-2,0.9-2.9,3-2.9c2.7,0,2.7,1.6,2.7,2.6v5c0,0.4,0,0.7,0.4,0.7c0.2,0,0.3,0,0.3-0.1v1
			c-0.1,0-0.5,0.1-0.8,0.1c-0.5,0-1.2,0-1.3-1.1h0c-0.4,0.8-1.3,1.3-2.1,1.3c-1.7,0-2.4-1-2.4-2.6c0-1.2,0.5-2.1,1.7-2.5l1.9-0.6
			c1-0.3,1-0.6,1-1.3c0-0.8-0.5-1.3-1.4-1.3c-1.5,0-1.5,1.4-1.5,1.7v0.1H147.5z M151.8,19.2c-0.5,0.5-1.7,0.7-2.4,1
			c-0.4,0.3-0.7,0.6-0.7,1.4c0,0.9,0.3,1.5,1.3,1.5c0.9,0,1.8-0.8,1.8-1.7V19.2z"/>
		<path fill="#FFFFFF" d="M155.2,15.2h1.3v1h0c0.4-0.8,1.3-1.3,2.2-1.3c1,0,1.6,0.4,1.9,1.4c0.4-0.8,1.2-1.4,2.1-1.4
			c2.3,0,2.3,1.8,2.3,2.8v6.3h-1.4v-6.2c0-0.7,0-1.8-1.2-1.8c-0.6,0-1.7,0.4-1.7,1.8v6.2h-1.4v-6.2c0-0.7,0-1.8-1.2-1.8
			c-0.6,0-1.7,0.4-1.7,1.8v6.2h-1.4V15.2z"/>
		<path fill="#FFFFFF" d="M167.2,12.2h1.4v1.6h-1.4V12.2z M167.2,15.2h1.4v8.9h-1.4V15.2z"/>
		<path fill="#FFFFFF" d="M174.7,17.9c0-0.9-0.3-1.8-1.4-1.8c-0.9,0-1.7,0.4-1.7,3.7c0,1.2,0,3.5,1.7,3.5c1.2,0,1.5-1.3,1.5-2.2h1.4
			c0,1.4-0.7,3.3-2.9,3.3c-2.2,0-3.1-1.5-3.1-4.6c0-2.2,0.4-4.8,3.2-4.8c2.4,0,2.8,1.9,2.8,2.9H174.7z"/>
		<path fill="#FFFFFF" d="M181.6,12.2h3.8c1.9,0,3,1.1,3,3c0,1.3-0.4,2.7-1.8,3v0c1,0.1,1.6,1,1.7,2l0.1,2c0.1,1.3,0.3,1.6,0.6,1.9
			h-1.8c-0.2-0.2-0.4-1.1-0.4-1.7l-0.1-1.8c-0.1-1.6-1-1.7-1.8-1.7h-2v5.3h-1.5V12.2z M183.1,17.6h1.4c0.9,0,2.4,0,2.4-2.3
			c0-1.2-0.8-1.9-2.1-1.9h-1.7V17.6z"/>
		<path fill="#FFFFFF" d="M191.4,19.8c0,1.4,0,3.4,1.7,3.4c1.3,0,1.5-1.4,1.5-2.1h1.4c0,0.9-0.6,3.2-3,3.2c-2.2,0-3.1-1.5-3.1-4.6
			c0-2.2,0.4-4.8,3.2-4.8c2.7,0,3,2.4,3,4.3v0.6H191.4z M194.6,18.7v-0.5c0-1-0.3-2.2-1.5-2.2c-1.5,0-1.6,1.8-1.6,2.3v0.3H194.6z"/>
		<path fill="#FFFFFF" d="M201.4,17.8c0-1.1-0.3-1.7-1.3-1.7c-0.4,0-1.4,0.1-1.4,1.4c0,1,1.1,1.2,2.2,1.6c1.1,0.4,2.2,0.7,2.2,2.5
			c0,1.9-1.2,2.8-2.9,2.8c-3,0-3.1-2.2-3.1-3.2h1.4c0,1.1,0.3,2.1,1.7,2.1c0.4,0,1.5-0.2,1.5-1.5c0-1.2-1.1-1.4-2.2-1.8
			c-1.1-0.4-2.2-0.7-2.2-2.5c0-1.7,1.3-2.5,2.8-2.5c2.6,0,2.7,1.8,2.7,2.8H201.4z"/>
		<path fill="#FFFFFF" d="M204.4,15.2h1.3v1.1h0c0.2-0.7,1-1.3,1.9-1.3c2.1,0,2.9,1.9,2.9,4.5c0,2-0.6,4.9-2.9,4.9
			c-0.8,0-1.5-0.5-1.9-1.2h0V27h-1.4V15.2z M207.5,23.1c1.3,0,1.6-1.4,1.6-3.7c0-2-0.3-3.3-1.6-3.3c-1.5,0-1.8,1.5-1.8,3.5
			C205.7,21.4,206,23.1,207.5,23.1z"/>
		<path fill="#FFFFFF" d="M214.8,14.9c2.6,0,3.2,2.2,3.2,4.7c0,2.5-0.6,4.7-3.2,4.7c-2.6,0-3.2-2.2-3.2-4.7
			C211.6,17.1,212.3,14.9,214.8,14.9z M216.6,19.6c0-1.9-0.3-3.6-1.8-3.6c-1.4,0-1.7,1.7-1.7,3.6s0.3,3.6,1.7,3.6
			C216.3,23.2,216.6,21.6,216.6,19.6z"/>
		<path fill="#FFFFFF" d="M219.5,15.2h1.3v1h0c0.4-0.8,1.3-1.3,2.2-1.3c2.3,0,2.3,1.8,2.3,2.8v6.3h-1.4v-6.2c0-0.7,0-1.8-1.3-1.8
			c-0.7,0-1.8,0.5-1.8,1.8v6.2h-1.4V15.2z"/>
		<path fill="#FFFFFF" d="M231,17.8c0-1.1-0.3-1.7-1.3-1.7c-0.4,0-1.4,0.1-1.4,1.4c0,1,1.1,1.2,2.2,1.6c1.1,0.4,2.2,0.7,2.2,2.5
			c0,1.9-1.2,2.8-2.9,2.8c-3,0-3.1-2.2-3.1-3.2h1.4c0,1.1,0.3,2.1,1.7,2.1c0.4,0,1.5-0.2,1.5-1.5c0-1.2-1.1-1.4-2.2-1.8
			c-1.1-0.4-2.2-0.7-2.2-2.5c0-1.7,1.3-2.5,2.8-2.5c2.6,0,2.7,1.8,2.7,2.8H231z"/>
		<path fill="#FFFFFF" d="M235.1,19.8c0,1.4,0,3.4,1.7,3.4c1.3,0,1.5-1.4,1.5-2.1h1.4c0,0.9-0.6,3.2-3,3.2c-2.2,0-3.1-1.5-3.1-4.6
			c0-2.2,0.4-4.8,3.2-4.8c2.7,0,3,2.4,3,4.3v0.6H235.1z M238.3,18.7v-0.5c0-1-0.3-2.2-1.5-2.2c-1.5,0-1.6,1.8-1.6,2.3v0.3H238.3z"/>
	</g>
</g>
</svg>