<?xml version="1.0" encoding="utf-8"?>
<!-- Generator: Adobe Illustrator 19.1.0, SVG Export Plug-In . SVG Version: 6.00 Build 0)  -->
<svg version="1.1" id="Livello_1" xmlns="http://www.w3.org/2000/svg" xmlns:xlink="http://www.w3.org/1999/xlink" x="0px" y="0px"
	 viewBox="0 0 39.1 39.1" enable-background="new 0 0 39.1 39.1" xml:space="preserve">
<g>
	<g>
		<g>
			<path fill="#41AE81" d="M19.5,38.3c-10.4,0-18.8-8.4-18.8-18.8S9.2,0.7,19.5,0.7s18.8,8.4,18.8,18.8S29.9,38.3,19.5,38.3z"/>
			<path fill="#2D8961" d="M19.5,1.5c10,0,18,8.1,18,18s-8.1,18-18,18s-18-8.1-18-18S9.6,1.5,19.5,1.5 M19.5,0C8.8,0,0,8.8,0,19.5
				s8.8,19.5,19.5,19.5c10.8,0,19.5-8.8,19.5-19.5S30.3,0,19.5,0L19.5,0z"/>
		</g>
		<polyline fill="none" stroke="#FFFFFF" stroke-width="2" stroke-linecap="round" stroke-miterlimit="10" points="11.2,18.1 
			17.9,27 27.6,14.1 		"/>
	</g>
</g>
</svg>
